<mxfile host="Electron" modified="2024-02-25T00:09:08.968Z" agent="Mozilla/5.0 (Windows NT 10.0; Win64; x64) AppleWebKit/537.36 (KHTML, like Gecko) draw.io/23.1.5 Chrome/120.0.6099.109 Electron/28.1.0 Safari/537.36" etag="tfPoheBTMmN_ajB_DfiR" version="23.1.5" type="device">
  <diagram name="Page-1" id="csruhzusxuJ6Sf0gXGaI">
    <mxGraphModel dx="780" dy="496" grid="1" gridSize="10" guides="1" tooltips="1" connect="1" arrows="1" fold="1" page="1" pageScale="1" pageWidth="827" pageHeight="1169" math="0" shadow="0">
      <root>
        <mxCell id="0" />
        <mxCell id="1" parent="0" />
        <mxCell id="Wx3VEsAD5srLktgjwZmq-1" value="{a,b,c}" style="whiteSpace=wrap;html=1;aspect=fixed;" vertex="1" parent="1">
          <mxGeometry x="290" y="20" width="80" height="80" as="geometry" />
        </mxCell>
        <mxCell id="Wx3VEsAD5srLktgjwZmq-2" value="{a,b}" style="whiteSpace=wrap;html=1;aspect=fixed;" vertex="1" parent="1">
          <mxGeometry x="390" y="150" width="80" height="80" as="geometry" />
        </mxCell>
        <mxCell id="Wx3VEsAD5srLktgjwZmq-3" value="{a,c}" style="whiteSpace=wrap;html=1;aspect=fixed;" vertex="1" parent="1">
          <mxGeometry x="150" y="140" width="80" height="80" as="geometry" />
        </mxCell>
        <mxCell id="Wx3VEsAD5srLktgjwZmq-4" value="{b,c}" style="whiteSpace=wrap;html=1;aspect=fixed;" vertex="1" parent="1">
          <mxGeometry x="270" y="150" width="80" height="80" as="geometry" />
        </mxCell>
        <mxCell id="Wx3VEsAD5srLktgjwZmq-5" value="{a}" style="whiteSpace=wrap;html=1;aspect=fixed;" vertex="1" parent="1">
          <mxGeometry x="150" y="310" width="80" height="80" as="geometry" />
        </mxCell>
        <mxCell id="Wx3VEsAD5srLktgjwZmq-6" value="{b}" style="whiteSpace=wrap;html=1;aspect=fixed;" vertex="1" parent="1">
          <mxGeometry x="430" y="290" width="80" height="80" as="geometry" />
        </mxCell>
        <mxCell id="Wx3VEsAD5srLktgjwZmq-7" value="{c}" style="whiteSpace=wrap;html=1;aspect=fixed;" vertex="1" parent="1">
          <mxGeometry x="270" y="310" width="80" height="80" as="geometry" />
        </mxCell>
        <mxCell id="Wx3VEsAD5srLktgjwZmq-8" value="{}" style="whiteSpace=wrap;html=1;aspect=fixed;" vertex="1" parent="1">
          <mxGeometry x="280" y="430" width="80" height="80" as="geometry" />
        </mxCell>
        <mxCell id="Wx3VEsAD5srLktgjwZmq-9" value="" style="endArrow=none;html=1;rounded=0;" edge="1" parent="1" source="Wx3VEsAD5srLktgjwZmq-2" target="Wx3VEsAD5srLktgjwZmq-1">
          <mxGeometry width="50" height="50" relative="1" as="geometry">
            <mxPoint x="380" y="280" as="sourcePoint" />
            <mxPoint x="430" y="230" as="targetPoint" />
          </mxGeometry>
        </mxCell>
        <mxCell id="Wx3VEsAD5srLktgjwZmq-10" value="" style="endArrow=none;html=1;rounded=0;entryX=0.5;entryY=1;entryDx=0;entryDy=0;" edge="1" parent="1" source="Wx3VEsAD5srLktgjwZmq-4" target="Wx3VEsAD5srLktgjwZmq-1">
          <mxGeometry width="50" height="50" relative="1" as="geometry">
            <mxPoint x="380" y="280" as="sourcePoint" />
            <mxPoint x="430" y="230" as="targetPoint" />
          </mxGeometry>
        </mxCell>
        <mxCell id="Wx3VEsAD5srLktgjwZmq-11" value="" style="endArrow=none;html=1;rounded=0;" edge="1" parent="1" source="Wx3VEsAD5srLktgjwZmq-3" target="Wx3VEsAD5srLktgjwZmq-1">
          <mxGeometry width="50" height="50" relative="1" as="geometry">
            <mxPoint x="380" y="280" as="sourcePoint" />
            <mxPoint x="430" y="230" as="targetPoint" />
          </mxGeometry>
        </mxCell>
        <mxCell id="Wx3VEsAD5srLktgjwZmq-12" value="" style="endArrow=none;html=1;rounded=0;" edge="1" parent="1" source="Wx3VEsAD5srLktgjwZmq-6" target="Wx3VEsAD5srLktgjwZmq-2">
          <mxGeometry width="50" height="50" relative="1" as="geometry">
            <mxPoint x="380" y="280" as="sourcePoint" />
            <mxPoint x="430" y="230" as="targetPoint" />
          </mxGeometry>
        </mxCell>
        <mxCell id="Wx3VEsAD5srLktgjwZmq-13" value="" style="endArrow=none;html=1;rounded=0;" edge="1" parent="1" source="Wx3VEsAD5srLktgjwZmq-6" target="Wx3VEsAD5srLktgjwZmq-4">
          <mxGeometry width="50" height="50" relative="1" as="geometry">
            <mxPoint x="380" y="280" as="sourcePoint" />
            <mxPoint x="430" y="230" as="targetPoint" />
          </mxGeometry>
        </mxCell>
        <mxCell id="Wx3VEsAD5srLktgjwZmq-14" value="" style="endArrow=none;html=1;rounded=0;" edge="1" parent="1" source="Wx3VEsAD5srLktgjwZmq-5" target="Wx3VEsAD5srLktgjwZmq-2">
          <mxGeometry width="50" height="50" relative="1" as="geometry">
            <mxPoint x="380" y="280" as="sourcePoint" />
            <mxPoint x="430" y="230" as="targetPoint" />
          </mxGeometry>
        </mxCell>
        <mxCell id="Wx3VEsAD5srLktgjwZmq-15" value="" style="endArrow=none;html=1;rounded=0;" edge="1" parent="1" source="Wx3VEsAD5srLktgjwZmq-5" target="Wx3VEsAD5srLktgjwZmq-3">
          <mxGeometry width="50" height="50" relative="1" as="geometry">
            <mxPoint x="380" y="280" as="sourcePoint" />
            <mxPoint x="430" y="230" as="targetPoint" />
          </mxGeometry>
        </mxCell>
        <mxCell id="Wx3VEsAD5srLktgjwZmq-16" value="" style="endArrow=none;html=1;rounded=0;" edge="1" parent="1" source="Wx3VEsAD5srLktgjwZmq-7" target="Wx3VEsAD5srLktgjwZmq-4">
          <mxGeometry width="50" height="50" relative="1" as="geometry">
            <mxPoint x="380" y="280" as="sourcePoint" />
            <mxPoint x="430" y="230" as="targetPoint" />
          </mxGeometry>
        </mxCell>
        <mxCell id="Wx3VEsAD5srLktgjwZmq-17" value="" style="endArrow=none;html=1;rounded=0;" edge="1" parent="1" source="Wx3VEsAD5srLktgjwZmq-7" target="Wx3VEsAD5srLktgjwZmq-3">
          <mxGeometry width="50" height="50" relative="1" as="geometry">
            <mxPoint x="380" y="280" as="sourcePoint" />
            <mxPoint x="430" y="230" as="targetPoint" />
          </mxGeometry>
        </mxCell>
        <mxCell id="Wx3VEsAD5srLktgjwZmq-18" value="" style="endArrow=none;html=1;rounded=0;" edge="1" parent="1" source="Wx3VEsAD5srLktgjwZmq-8" target="Wx3VEsAD5srLktgjwZmq-6">
          <mxGeometry width="50" height="50" relative="1" as="geometry">
            <mxPoint x="340" y="544" as="sourcePoint" />
            <mxPoint x="430" y="230" as="targetPoint" />
          </mxGeometry>
        </mxCell>
        <mxCell id="Wx3VEsAD5srLktgjwZmq-19" value="" style="endArrow=none;html=1;rounded=0;" edge="1" parent="1" source="Wx3VEsAD5srLktgjwZmq-8" target="Wx3VEsAD5srLktgjwZmq-7">
          <mxGeometry width="50" height="50" relative="1" as="geometry">
            <mxPoint x="380" y="390" as="sourcePoint" />
            <mxPoint x="430" y="340" as="targetPoint" />
          </mxGeometry>
        </mxCell>
        <mxCell id="Wx3VEsAD5srLktgjwZmq-20" value="" style="endArrow=none;html=1;rounded=0;entryX=0.35;entryY=0.996;entryDx=0;entryDy=0;entryPerimeter=0;" edge="1" parent="1" source="Wx3VEsAD5srLktgjwZmq-8" target="Wx3VEsAD5srLktgjwZmq-5">
          <mxGeometry width="50" height="50" relative="1" as="geometry">
            <mxPoint x="380" y="390" as="sourcePoint" />
            <mxPoint x="430" y="340" as="targetPoint" />
          </mxGeometry>
        </mxCell>
      </root>
    </mxGraphModel>
  </diagram>
</mxfile>
